<?xml version="1.0" encoding="utf-8"?>
<!-- Generator: Adobe Illustrator 24.3.0, SVG Export Plug-In . SVG Version: 6.00 Build 0)  -->
<svg version="1.1" id="Layer_1" xmlns="http://www.w3.org/2000/svg" xmlns:xlink="http://www.w3.org/1999/xlink" x="0px" y="0px"
	 viewBox="0 0 186 66" style="enable-background:new 0 0 186 66;" xml:space="preserve">
<style type="text/css">
	.st0{fill-rule:evenodd;clip-rule:evenodd;fill:#CF3848;}
	.st1{fill:#75A05D;}
	.st2{fill:#F5BF25;}
</style>
<g>
	<path class="st0" d="M35.5,25c-3.5-4-6.7-8.1-8.4-13c-1.4-4-0.1-8,3.1-10.3c3.3-2.3,7.5-2.3,10.7,0.1c3.2,2.4,4.4,6.5,2.9,10.5
		c-1.4,3.7-3.6,7-6,10C37.1,23.2,36.3,24.1,35.5,25z M40.1,9c0-2.6-2.1-4.6-4.6-4.6C33,4.4,30.9,6.5,31,9c0,2.5,2.1,4.6,4.6,4.6
		C38,13.5,40.1,11.5,40.1,9z"/>
	<path class="st1" d="M11.4,36.2v-2.4C8.1,30,4.2,27.3,0,25.8v3.8c3.3,1.4,6.4,3.7,9,6.8c2.7,3.2,4.7,7,5.9,11.2h3.4
		c-1-4.1-2.7-7.9-5.1-11.3H11.4z"/>
	<path class="st1" d="M8.2,37.7c-2.4-2.9-5.2-5.2-8.2-6.8v4c2.1,1.4,4,3.1,5.8,5.2c2.6,3.2,4.5,7,5.6,11.2v-3.7h2.3
		C12.4,43.9,10.6,40.6,8.2,37.7z"/>
	<path class="st1" d="M6.9,60.3c0-0.7,0-1.3-0.1-2C6.3,52.5,3.9,47,0,42.7V48c0.5,0.7,0.9,1.5,1.3,2.3c1.6,3.3,2.5,6.9,2.6,10.6
		c0,1.8-0.1,3.5-0.4,5.1h3C6.8,64.2,6.9,62.3,6.9,60.3z"/>
	<path class="st1" d="M11.3,59.4c-0.1-7.6-3-14.7-8.1-20.1c-1-1.1-2.1-2-3.2-2.9v4.3c0.3,0.3,0.6,0.6,0.8,0.8
		C5.5,46.5,8.1,53.1,8.2,60c0,0.2,0,0.4,0,0.6c0,1.8-0.2,3.6-0.5,5.3H10c0.3,0,0.5-0.1,0.7-0.2c0-0.2,0.1-0.4,0.1-0.6
		C11.2,63.4,11.3,61.4,11.3,59.4z"/>
	<path class="st1" d="M23.6,31.1v1.6c0,2.3-1.2,3.5-3.5,3.5h-3.4c-0.2,0.2-0.4,0.4-0.6,0.7c0.6,1.1,1.2,2.2,1.8,3.3
		c1.2-1.4,2.5-2.7,4-3.8c3.8-2.9,8.3-4.9,13.1-5.8v-3.3C30.9,28,27.1,29.2,23.6,31.1z"/>
	<path class="st1" d="M18.3,41.6c0.5,1.3,1,2.7,1.3,4.2c1.5-2.3,3.5-4.3,5.9-6.1c2.8-2.1,6-3.6,9.5-4.6c0,0,0,0,0,0v-3.4
		c-4.3,1.1-8.4,2.9-11.9,5.5C21.3,38.4,19.7,39.9,18.3,41.6z"/>
	<path class="st1" d="M33.4,42.2c-0.7,0.4-1.4,0.9-2.1,1.4c-4.9,3.4-8.2,8-9.9,13l0.9,3.5l1.1,4.7c0.1,0.3,0.2,0.5,0.3,0.7
		c0-0.8,0-1.7,0-2.6c0-0.1,0-0.2,0-0.4c0.5-5.3,2.9-10.2,7.1-14.1l-0.1-0.6l-0.5-2.2C31.5,44.7,32.6,43.6,33.4,42.2z"/>
	<path class="st1" d="M31,41.8c1-0.7,2.1-1.2,3.3-1.8c0.4-1.2,0.6-2.5,0.7-3.9c-2.2,0.8-4.2,1.8-6.2,3c-3.7,2.3-6.6,5.2-8.6,8.5
		c0,0.3,0.1,0.7,0.1,1c0.3,1.7,0.4,3.5,0.4,5.3l0.2,0.7C22.4,49.5,26,45,31,41.8z"/>
	<path class="st1" d="M1.4,66H2c0.2-1.5,0.4-3.1,0.3-4.7C2.3,57.5,1.5,53.9,0,50.5v14.1C0,65.5,0.5,66,1.4,66z"/>
	<path class="st1" d="M31.2,50.2c-4,4.7-6.2,10.1-6.2,15.8h3.5c0.1-4,1.5-7.9,3.8-11.4L31.2,50.2z"/>
	<path class="st1" d="M30.4,66h3.1c0.2,0,0.3,0,0.4,0c0.1-1,0.2-1.9,0.5-2.9l-1.5-6.2C31.4,59.8,30.5,62.8,30.4,66z"/>
	<path class="st2" d="M25.7,12.5c-0.8-2.2-0.8-4.6-0.2-6.7c0.1-0.3,0.2-0.5,0.3-0.8c-1-0.2-2.2-0.3-3.4-0.3h-21C0.5,4.7,0,5.3,0,6.1
		v5.5v12.1c4.1,1.3,8.1,3.8,11.4,7.2V16h8.8c2.3,0,3.5,1.2,3.5,3.5v9.1c2.3-1.2,4.7-2.1,7.4-2.6c1-0.2,2-0.3,3-0.4
		C30.7,21.8,27.4,17.6,25.7,12.5z"/>
</g>
<g>
	<path class="st1" d="M55.7,33.4h1.5c0.2,0,0.3-0.1,0.3-0.3v-3h1.4l0.7,3.1c0,0.1,0.1,0.2,0.3,0.2h1.5c0.2,0,0.3-0.1,0.2-0.3
		l-0.8-3.4c0.6-0.4,0.9-1,0.9-1.9v-3.1c0-1.5-0.8-2.2-2.2-2.2h-3.7c-0.2,0-0.2,0.1-0.2,0.2v10.4C55.5,33.3,55.6,33.4,55.7,33.4z
		 M57.5,24.5h1.6c0.4,0,0.6,0.2,0.6,0.6v2.4c0,0.4-0.2,0.6-0.6,0.6h-1.6V24.5z"/>
	<path class="st1" d="M70.8,22.4h-2.2c-0.1,0-0.2,0.1-0.3,0.2l-2.6,10.5c0,0.2,0,0.3,0.2,0.3h1.5c0.1,0,0.2-0.1,0.3-0.2l0.5-2h2.9
		l0.5,2c0,0.1,0.1,0.2,0.3,0.2h1.5c0.2,0,0.3-0.1,0.2-0.3l-2.6-10.5C71.1,22.5,71,22.4,70.8,22.4z M68.8,29.4l1-4.2l1,4.2H68.8z"/>
	<path class="st1" d="M84.5,22.4H83c-0.2,0-0.3,0.1-0.3,0.2v5.9l-2.9-6c-0.1-0.1-0.1-0.2-0.3-0.2h-1.2c-0.2,0-0.2,0.1-0.2,0.2v10.4
		c0,0.2,0.1,0.3,0.2,0.3h1.5c0.2,0,0.3-0.1,0.3-0.3v-5.9l2.9,6c0.1,0.1,0.1,0.2,0.3,0.2h1.2c0.2,0,0.2-0.1,0.2-0.3V22.7
		C84.7,22.5,84.7,22.4,84.5,22.4z"/>
	<path class="st1" d="M93.4,22.4h-1.7c-1.5,0-2.3,0.8-2.3,2.2v6.4c0,1.5,0.8,2.2,2.3,2.2h1.7c1.5,0,2.2-0.8,2.2-2.2v-1.7
		c0-0.2-0.1-0.3-0.3-0.3H94c-0.2,0-0.2,0.1-0.2,0.3v1.3c0,0.4-0.2,0.6-0.6,0.6h-1c-0.4,0-0.6-0.2-0.6-0.6v-5.7
		c0-0.4,0.2-0.6,0.6-0.6h1c0.4,0,0.6,0.2,0.6,0.6v1.3c0,0.2,0.1,0.3,0.2,0.3h1.5c0.2,0,0.3-0.1,0.3-0.3v-1.7
		C95.7,23.2,94.9,22.4,93.4,22.4z"/>
	<path class="st1" d="M100.6,33.4h1.6c0.2,0,0.2-0.1,0.2-0.3V29h2v4.2c0,0.2,0.1,0.3,0.3,0.3h1.6c0.2,0,0.3-0.1,0.3-0.3V22.7
		c0-0.2-0.1-0.2-0.3-0.2h-1.6c-0.2,0-0.3,0.1-0.3,0.2v4.2h-2v-4.2c0-0.2-0.1-0.2-0.2-0.2h-1.6c-0.2,0-0.3,0.1-0.3,0.2v10.4
		C100.4,33.3,100.5,33.4,100.6,33.4z"/>
	<path class="st1" d="M115.3,22.4h-1.7c-1.5,0-2.2,0.8-2.2,2.2v6.4c0,1.5,0.8,2.2,2.2,2.2h1.7c1.5,0,2.2-0.8,2.2-2.2v-6.4
		C117.6,23.2,116.8,22.4,115.3,22.4z M115.6,30.7c0,0.4-0.2,0.6-0.6,0.6h-1c-0.4,0-0.6-0.2-0.6-0.6v-5.7c0-0.4,0.2-0.6,0.6-0.6h1
		c0.4,0,0.6,0.2,0.6,0.6V30.7z"/>
	<path class="st1" d="M129.5,33.4h1.6c0.2,0,0.2-0.1,0.2-0.3v-3.9h2.9c0.2,0,0.3-0.1,0.3-0.2v-1.6c0-0.2-0.1-0.3-0.3-0.3h-2.9v-2.7
		h3.9c0.2,0,0.2-0.1,0.2-0.2v-1.6c0-0.2-0.1-0.2-0.2-0.2h-5.7c-0.2,0-0.2,0.1-0.2,0.2v10.4C129.3,33.3,129.4,33.4,129.5,33.4z"/>
	<path class="st1" d="M142,33.1V22.7c0-0.2-0.1-0.2-0.3-0.2h-1.6c-0.2,0-0.2,0.1-0.2,0.2v10.4c0,0.2,0.1,0.3,0.2,0.3h1.6
		C141.9,33.4,142,33.3,142,33.1z"/>
	<path class="st1" d="M153.4,33.1V22.7c0-0.2-0.1-0.2-0.2-0.2h-1.5c-0.2,0-0.3,0.1-0.3,0.2v5.9l-2.9-6c-0.1-0.1-0.1-0.2-0.3-0.2H147
		c-0.2,0-0.2,0.1-0.2,0.2v10.4c0,0.2,0.1,0.3,0.2,0.3h1.5c0.2,0,0.2-0.1,0.2-0.3v-5.9l2.9,6c0.1,0.1,0.1,0.2,0.3,0.2h1.2
		C153.3,33.4,153.4,33.3,153.4,33.1z"/>
	<path class="st1" d="M164.3,31.1v-6.4c0-1.5-0.8-2.3-2.2-2.3h-3.7c-0.2,0-0.2,0.1-0.2,0.2v10.4c0,0.2,0.1,0.3,0.2,0.3h3.7
		C163.5,33.4,164.3,32.6,164.3,31.1z M162.2,30.7c0,0.4-0.2,0.6-0.6,0.6h-1.4v-6.8h1.4c0.4,0,0.6,0.2,0.6,0.6V30.7z"/>
	<path class="st1" d="M169.2,33.4h5.7c0.2,0,0.2-0.1,0.2-0.3v-1.6c0-0.2-0.1-0.2-0.2-0.2h-3.9V29h2.9c0.2,0,0.2-0.1,0.2-0.3v-1.5
		c0-0.2-0.1-0.3-0.2-0.3h-2.9v-2.4h3.9c0.2,0,0.2-0.1,0.2-0.3v-1.6c0-0.2-0.1-0.2-0.2-0.2h-5.7c-0.1,0-0.2,0.1-0.2,0.2v10.4
		C169,33.3,169.1,33.4,169.2,33.4z"/>
	<path class="st1" d="M186,27.8v-3.1c0-1.5-0.8-2.2-2.2-2.2H180c-0.2,0-0.2,0.1-0.2,0.2v10.4c0,0.2,0.1,0.3,0.2,0.3h1.5
		c0.2,0,0.2-0.1,0.2-0.3v-3h1.4l0.7,3.1c0,0.1,0.1,0.2,0.3,0.2h1.5c0.2,0,0.3-0.1,0.2-0.3l-0.8-3.4C185.7,29.4,186,28.7,186,27.8z
		 M184,27.4c0,0.4-0.2,0.6-0.6,0.6h-1.6v-3.6h1.6c0.4,0,0.6,0.2,0.6,0.6V27.4z"/>
	<path class="st1" d="M59.5,39.4h-3.8c-0.2,0-0.3,0.1-0.3,0.3v10.6c0,0.2,0.1,0.3,0.3,0.3h3.8c1.5,0,2.3-0.8,2.3-2.3v-2.1
		c0-0.6-0.4-1-1-1.1v0c0.6-0.1,1-0.5,1-1.1v-2.1C61.8,40.2,61,39.4,59.5,39.4z M59.8,47.8c0,0.4-0.2,0.6-0.6,0.6h-1.7V46h1.7
		c0.4,0,0.6,0.2,0.6,0.6V47.8z M59.8,43.3c0,0.4-0.2,0.6-0.6,0.6h-1.7v-2.5h1.7c0.4,0,0.6,0.2,0.6,0.6V43.3z"/>
	<path class="st1" d="M72.6,39.4h-1.5c-0.2,0-0.3,0.1-0.3,0.3v8c0,0.4-0.2,0.6-0.6,0.6h-0.8c-0.4,0-0.6-0.2-0.6-0.6v-8
		c0-0.2-0.1-0.3-0.3-0.3h-1.5c-0.2,0-0.3,0.1-0.3,0.3v8.5c0,1.5,0.8,2.3,2.3,2.3h1.8c1.5,0,2.3-0.8,2.3-2.3v-8.5
		C72.9,39.5,72.7,39.4,72.6,39.4z"/>
	<path class="st1" d="M81.5,39.4h-1.8c-1.5,0-2.3,0.8-2.3,2.3v2.7c0,0.3,0.1,0.5,0.4,0.6l3.8,1.2v1.6c0,0.4-0.2,0.6-0.6,0.6h-0.9
		c-0.4,0-0.6-0.2-0.6-0.6v-0.7c0-0.2-0.1-0.3-0.3-0.3h-1.6c-0.2,0-0.3,0.1-0.3,0.3v1c0,1.5,0.8,2.3,2.3,2.3h1.8
		c1.5,0,2.3-0.8,2.3-2.3v-3c0-0.3-0.1-0.5-0.4-0.6l-3.8-1.2V42c0-0.4,0.2-0.6,0.6-0.6H81c0.4,0,0.6,0.2,0.6,0.6v0.7
		c0,0.2,0.1,0.3,0.3,0.3h1.6c0.2,0,0.3-0.1,0.3-0.3v-1C83.8,40.2,83,39.4,81.5,39.4z"/>
	<path class="st1" d="M92.4,39.4h-1.8c-1.5,0-2.3,0.8-2.3,2.3v6.5c0,1.5,0.8,2.3,2.3,2.3h1.8c1.5,0,2.3-0.8,2.3-2.3v-1.7
		c0-0.2-0.1-0.3-0.3-0.3h-1.5c-0.2,0-0.3,0.1-0.3,0.3v1.3c0,0.4-0.2,0.6-0.6,0.6h-1c-0.4,0-0.6-0.2-0.6-0.6v-5.7
		c0-0.4,0.2-0.6,0.6-0.6h1c0.4,0,0.6,0.2,0.6,0.6v1.3c0,0.2,0.1,0.3,0.3,0.3h1.5c0.2,0,0.3-0.1,0.3-0.3v-1.7
		C94.7,40.2,93.9,39.4,92.4,39.4z"/>
	<path class="st1" d="M103.9,39.4h-2.2c-0.1,0-0.2,0.1-0.3,0.2l-2.6,10.6c0,0.2,0,0.3,0.2,0.3h1.5c0.1,0,0.2-0.1,0.3-0.2l0.5-2h3
		l0.5,2c0,0.1,0.1,0.2,0.3,0.2h1.5c0.2,0,0.3-0.1,0.2-0.3l-2.6-10.6C104.1,39.5,104,39.4,103.9,39.4z M101.8,46.4l1-4.3l1,4.3H101.8
		z"/>
	<path class="st1" d="M122.4,39.4h-3.8c-0.2,0-0.3,0.1-0.3,0.3v10.6c0,0.2,0.1,0.3,0.3,0.3h1.5c0.2,0,0.3-0.1,0.3-0.3v-3.1h1.4
		l0.8,3.1c0,0.1,0.1,0.2,0.3,0.2h1.5c0.2,0,0.3-0.1,0.2-0.3l-0.8-3.4c0.6-0.4,0.9-1,0.9-1.9v-3.2C124.6,40.2,123.9,39.4,122.4,39.4z
		 M122.6,44.4c0,0.4-0.2,0.6-0.6,0.6h-1.6v-3.6h1.6c0.4,0,0.6,0.2,0.6,0.6V44.4z"/>
	<path class="st1" d="M133.8,39.4h-2.2c-0.1,0-0.2,0.1-0.3,0.2l-2.6,10.6c0,0.2,0,0.3,0.2,0.3h1.5c0.1,0,0.2-0.1,0.3-0.2l0.5-2h3
		l0.5,2c0,0.1,0.1,0.2,0.3,0.2h1.5c0.2,0,0.3-0.1,0.2-0.3l-2.6-10.6C134.1,39.5,134,39.4,133.8,39.4z M131.7,46.4l1-4.3l1,4.3H131.7
		z"/>
	<path class="st1" d="M147.7,39.4h-1.5c-0.2,0-0.3,0.1-0.3,0.3v6l-3-6c-0.1-0.1-0.1-0.2-0.3-0.2h-1.2c-0.2,0-0.3,0.1-0.3,0.3v10.6
		c0,0.2,0.1,0.3,0.3,0.3h1.5c0.2,0,0.3-0.1,0.3-0.3v-6l3,6c0.1,0.1,0.1,0.2,0.3,0.2h1.2c0.2,0,0.3-0.1,0.3-0.3V39.6
		C147.9,39.5,147.8,39.4,147.7,39.4z"/>
	<path class="st1" d="M156.7,39.4h-1.8c-1.5,0-2.3,0.8-2.3,2.3v6.5c0,1.5,0.8,2.3,2.3,2.3h1.8c1.5,0,2.3-0.8,2.3-2.3v-1.7
		c0-0.2-0.1-0.3-0.3-0.3h-1.5c-0.2,0-0.3,0.1-0.3,0.3v1.3c0,0.4-0.2,0.6-0.6,0.6h-1c-0.4,0-0.6-0.2-0.6-0.6v-5.7
		c0-0.4,0.2-0.6,0.6-0.6h1c0.4,0,0.6,0.2,0.6,0.6v1.3c0,0.2,0.1,0.3,0.3,0.3h1.5c0.2,0,0.3-0.1,0.3-0.3v-1.7
		C159,40.2,158.2,39.4,156.7,39.4z"/>
	<path class="st1" d="M169.8,39.4h-1.6c-0.2,0-0.3,0.1-0.3,0.3v4.3h-2v-4.3c0-0.2-0.1-0.3-0.3-0.3H164c-0.2,0-0.3,0.1-0.3,0.3v10.6
		c0,0.2,0.1,0.3,0.3,0.3h1.6c0.2,0,0.3-0.1,0.3-0.3V46h2v4.2c0,0.2,0.1,0.3,0.3,0.3h1.6c0.2,0,0.3-0.1,0.3-0.3V39.6
		C170,39.5,170,39.4,169.8,39.4z"/>
	<path class="st1" d="M178.8,39.4h-1.8c-1.5,0-2.3,0.8-2.3,2.3v6.5c0,1.5,0.8,2.3,2.3,2.3h1.8c1.5,0,2.3-0.8,2.3-2.3v-6.5
		C181.1,40.2,180.3,39.4,178.8,39.4z M179.1,47.8c0,0.4-0.2,0.6-0.6,0.6h-1c-0.4,0-0.6-0.2-0.6-0.6v-5.7c0-0.4,0.2-0.6,0.6-0.6h1
		c0.4,0,0.6,0.2,0.6,0.6V47.8z"/>
</g>
</svg>
